#N canvas 957 1146 679 700 10;
#X declare -lib mrpeach;
#X obj 79 75 import mrpeach;
#X msg 145 176 disconnect;
#X floatatom 196 213 5 0 0 0 - - -;
#X obj 195 266 packOSC;
#X text 208 18 http://en.flossmanuals.net/pure-data/ch065_osc/;
#X msg 208 399 status;
#X floatatom 420 564 3 0 0 0 - - -;
#X floatatom 447 564 3 0 0 0 - - -;
#X floatatom 474 564 3 0 0 0 - - -;
#X floatatom 501 564 3 0 0 0 - - -;
#X floatatom 528 565 5 0 0 0 - - -;
#X obj 420 538 unpack 0 0 0 0 0;
#X floatatom 317 485 9 0 0 0 - - -;
#X obj 472 511 tgl 15 0 empty empty empty 17 7 0 10 -4034 -1 -1 0 1
;
#X floatatom 368 511 9 0 0 0 - - -;
#X text 225 509 total bytes received:;
#X text 377 563 from:;
#X obj 317 452 route received total from multicast;
#X text 220 484 bytes received:;
#X obj 208 567 spigot;
#X obj 247 547 tgl 15 0 empty empty enable_print: -77 8 0 10 -4034
-1 -1 1 1;
#X obj 208 592 print received;
#X floatatom 280 208 5 0 0 0 - - -;
#X msg 236 212 33;
#X obj 102 456 unpackOSC;
#X obj 97 490 print unpk;
#X obj 370 303 udpsend;
#X msg 435 179 disconnect;
#X floatatom 462 220 5 0 0 0 - - -;
#X obj 460 262 packOSC;
#X msg 461 240 send /test\$1;
#X msg 461 240 send /test \$1;
#X floatatom 545 204 5 0 0 0 - - -;
#X msg 508 215 33;
#X msg 369 136 connect localhost 4545;
#X obj 105 308 udpsend;
#X msg 195 242 send /test \$1;
#X msg 100 144 connect 192.168.1.111 8888;
#X obj 208 426 udpreceive 9999;
#X connect 1 0 35 0;
#X connect 2 0 36 0;
#X connect 3 0 35 0;
#X connect 5 0 38 0;
#X connect 11 0 6 0;
#X connect 11 1 7 0;
#X connect 11 2 8 0;
#X connect 11 3 9 0;
#X connect 11 4 10 0;
#X connect 17 0 12 0;
#X connect 17 1 14 0;
#X connect 17 2 11 0;
#X connect 17 3 13 0;
#X connect 19 0 21 0;
#X connect 20 0 19 1;
#X connect 23 0 36 0;
#X connect 24 0 25 0;
#X connect 27 0 26 0;
#X connect 28 0 30 0;
#X connect 28 0 30 0;
#X connect 29 0 26 0;
#X connect 30 0 29 0;
#X connect 30 0 29 0;
#X connect 33 0 30 0;
#X connect 34 0 26 0;
#X connect 36 0 3 0;
#X connect 37 0 35 0;
#X connect 38 0 19 0;
#X connect 38 0 24 0;
#X connect 38 1 17 0;
